<?xml version="1.0" standalone="no"?>
<!DOCTYPE svg PUBLIC "-//W3C//DTD SVG 20010904//EN"
 "http://www.w3.org/TR/2001/REC-SVG-20010904/DTD/svg10.dtd">
<svg version="1.0" xmlns="http://www.w3.org/2000/svg"
 width="250.000000pt" height="93.000000pt" viewBox="0 0 250.000000 93.000000"
 preserveAspectRatio="xMidYMid meet">

<g transform="translate(0.000000,93.000000) scale(0.100000,-0.100000)"
fill="#000000" stroke="none">
<path d="M180 750 c-12 -8 -10 -10 11 -10 27 0 54 -22 42 -33 -3 -4 8 -7 25
-7 19 0 32 5 32 13 0 19 -13 34 -30 34 -8 0 -26 3 -40 7 -14 3 -32 2 -40 -4z"/>
<path d="M396 670 c12 -13 27 -21 33 -19 6 2 -4 12 -22 22 l-32 18 21 -21z"/>
<path d="M603 673 c-17 -2 -37 -11 -43 -18 -7 -8 -27 -81 -45 -161 -19 -81
-39 -152 -45 -158 -7 -7 -75 -13 -173 -16 l-162 -6 167 -2 c198 -2 185 -11
217 140 35 164 43 186 68 197 13 6 35 11 48 11 13 0 27 5 30 10 6 10 -2 10
-62 3z"/>
<path d="M577 621 c-3 -13 4 -28 20 -43 l26 -23 -14 23 c-8 12 -18 22 -23 22
-4 0 -3 6 3 14 7 8 8 17 3 20 -6 3 -12 -3 -15 -13z"/>
<path d="M99 591 l-23 -18 16 -92 c9 -51 22 -99 28 -107 10 -11 43 -14 169
-12 l156 2 -151 3 c-105 3 -155 7 -162 16 -15 18 -44 171 -36 190 5 15 29 17
205 17 126 0 199 4 199 10 0 6 -70 10 -189 10 -170 0 -191 -2 -212 -19z"/>
<path d="M289 522 c-2 -32 0 -52 6 -52 7 0 9 16 7 38 -6 65 -8 68 -13 14z"/>
<path d="M211 443 c-1 -7 -8 -13 -18 -13 -9 0 -13 -3 -10 -7 4 -3 29 -5 56 -4
44 1 50 -1 54 -21 l4 -23 2 22 c1 20 7 22 74 26 55 2 47 3 -40 5 -78 1 -113 6
-116 15 -4 10 -6 10 -6 0z"/>
<path d="M2190 275 c-15 -18 -10 -45 13 -59 34 -22 73 27 47 59 -16 19 -44 19
-60 0z m55 -25 c0 -18 -6 -26 -23 -28 -24 -4 -38 18 -28 44 3 9 15 14 28 12
17 -2 23 -10 23 -28z"/>
<path d="M2290 248 c0 -49 5 -47 13 5 3 20 2 37 -4 37 -5 0 -9 -19 -9 -42z"/>
<path d="M152 268 c-18 -18 -15 -53 6 -71 26 -24 49 -21 68 8 24 36 6 75 -34
75 -15 0 -33 -5 -40 -12z m63 -33 c0 -35 -31 -47 -51 -20 -18 25 0 57 29 53
17 -2 22 -10 22 -33z"/>
<path d="M180 235 c0 -8 5 -15 10 -15 6 0 10 7 10 15 0 8 -4 15 -10 15 -5 0
-10 -7 -10 -15z"/>
<path d="M368 255 c-9 -19 -8 -29 6 -50 21 -32 51 -32 72 0 14 21 15 31 6 50
-16 35 -68 35 -84 0z m71 -2 c12 -23 -4 -53 -29 -53 -25 0 -41 29 -29 52 12
23 45 23 58 1z"/>
<path d="M400 235 c0 -8 5 -15 10 -15 6 0 10 7 10 15 0 8 -4 15 -10 15 -5 0
-10 -7 -10 -15z"/>
<path d="M2363 245 c0 -22 2 -30 4 -17 2 12 2 30 0 40 -3 9 -5 -1 -4 -23z"/>
<path d="M2422 240 c0 -19 2 -27 5 -17 2 9 2 25 0 35 -3 9 -5 1 -5 -18z"/>
</g>
</svg>
